<svg viewBox="0 0 515.5 131.3" xmlns="http://www.w3.org/2000/svg"><g fill="none"><path d="m48.7 85.9-.1.1-.8.8zm-7-42.7c6.6-6.6 15.7-10.7 25.7-10.7 4.3 0 8.5.8 12.3 2.2-4.2-1.8-8.8-2.8-13.6-2.8-9.6 0-18.3 3.9-24.7 10.2-5.7 5.7-9.4 13.3-10.1 21.8 1.2-8 4.9-15.2 10.4-20.7z"/><path d="m65.6 4.6c-16.8 0-32.1 6.9-43.2 17.9-1.2 1.2-2.4 2.5-3.5 3.8l1.8-1.8c11.3-11.3 26.9-18.3 44-18.3s32.7 7 43.9 18.2c10.2 10.2 16.9 23.9 18 39.2-.5-16-7.3-30.5-17.9-41.1-11-11.1-26.3-17.9-43.1-17.9z"/><path d="m99.9 85.3c-1.8 3.5-4 6.6-6.8 9.3-6.6 6.6-15.7 10.7-25.7 10.7h-1.2c-10.6 0-20.3-4.3-27.2-11.3-7-7-11.3-16.6-11.3-27.2s4.3-20.3 11.3-27.2c5.2-5.2 11.8-8.9 19.2-10.5-8.1 1.4-15.3 5.3-20.9 10.9-7.1 7.1-11.5 16.9-11.5 27.7s4.4 20.6 11.5 27.7 16.9 11.5 27.7 11.5 20.6-4.4 27.7-11.5c3.2-3.2 5.8-6.9 7.8-11z"/><path d="m52.2 125.2c-10.1-2.7-19.2-8-26.4-15.2-10.5-10.6-17.1-25.2-17.1-41.2 0-16.1 6.6-30.7 17.1-41.2 10.6-10.7 25.2-17.2 41.3-17.2 3.8 0 7.5.4 11.1 1.1-4.3-1-8.9-1.6-13.5-1.6-16.1 0-30.7 6.6-41.3 17.2-10.7 10.5-17.2 25.1-17.2 41.3 0 14.9 5.7 28.6 14.9 39 .5.5.9 1 1.4 1.4 8 8 18.3 13.8 29.7 16.4z"/><path d="m67.1 14c-15.1 0-28.8 6.2-38.7 16.1s-16 23.6-16.1 38.6c0 15.1 6.2 28.8 16.1 38.7s23.6 16.1 38.7 16.1 28.7-6.1 38.7-16.1c9.9-9.9 16.1-23.6 16.1-38.7s-6.2-28.8-16.1-38.7c-10-9.8-23.6-16-38.7-16zm41.7 53.7c0 12.1-4.9 23-12.8 30.9-8 7.9-19 12.8-31 12.9-12.1 0-23-4.9-30.9-12.8s-12.8-18.9-12.8-30.9 4.9-23 12.8-30.9c7.9-8.1 18.8-13 30.9-13s23 4.9 30.9 12.8c7.9 8 12.9 18.9 12.9 31z"/><path d="m100.2 68.9c0-9-3.7-17.2-9.6-23.2-5.9-5.9-14.1-9.6-23.2-9.6-9 0-17.2 3.7-23.1 9.6s-9.6 14.1-9.6 23.2c0 9 3.7 17.2 9.6 23.1 5.8 5.8 13.7 9.4 22.5 9.6 9.4-.2 17.8-4 24-10.2 2.3-2.3 4.3-5 5.9-7.9 2.3-4.3 3.5-9.3 3.5-14.6zm-6.1-1.3c0 7.5-3 14.2-8 19.1-4.9 4.9-11.7 7.9-19.1 7.9-7.5 0-14.2-3-19.1-8-4.9-4.9-7.9-11.7-7.9-19.1 0-7.5 3-14.2 8-19.1 4.9-4.9 11.7-7.9 19.1-7.9 2.1 0 4.2.2 6.2.7.3.1.7.2 1 .2 1.6.4 3.2 1 4.7 1.8.9.4 1.8.9 2.6 1.5.8.5 1.6 1.1 2.4 1.7 3.9 3.2 6.9 7.4 8.6 12.4.5 1.4.9 2.8 1.2 4.2.1 1.5.3 3.1.3 4.6zm183.5 5.5c4.1 0 7.7-1.5 10.7-4.4 5.9-5.9 5.9-15.5 0-21.4-3-3-6.5-4.4-10.7-4.4s-7.8 1.5-10.7 4.4c-3 3-4.5 6.5-4.5 10.7s1.5 7.8 4.5 10.7c2.9 3 6.5 4.4 10.7 4.4z"/><path d="m78.9 43.3-.9 1.6.8-1.6-.8 1.6zm-12.9 1.3c6.7 0 12.8 2.7 17.2 7.1s7.1 10.5 7.1 17.1c0 .7 0 1.3-.1 2 .2-1.1.2-2.2.2-3.3 0-1.3-.2-2.6-.4-3.8-.3-1.3-.6-2.6-1-3.8-1.4-4.3-4.1-8-7.4-10.7-.6-.5-1.3-1-2.1-1.5-.7-.5-1.5-.9-2.2-1.3-1.3-.6-2.6-1.1-4-1.5-.3-.1-.6-.2-.8-.2-1.7-.4-3.5-.6-5.4-.6-3.3 0-6.5.7-9.3 2 2.5-.9 5.3-1.5 8.2-1.5zm-15.8 8.5 1.2 1.2-1.4-1.4z"/><path d="m51.4 54.3c-3.7 3.7-6.1 8.9-6.1 14.6s2.3 10.8 6.1 14.6c3.7 3.7 8.9 6.1 14.6 6.1s10.8-2.3 14.6-6.1c3.7-3.7 6.1-8.9 6.1-14.6s-2.3-10.8-6.1-14.6c-3.7-3.7-8.9-6.1-14.6-6.1-5.7.1-10.8 2.4-14.6 6.1zm236.9 34.8c-.5-.3-1.4-.4-2.5-.4h-5.8v6.5h5.8c1.1 0 2-.1 2.6-.4 1-.5 1.5-1.4 1.5-2.7-.1-1.6-.6-2.5-1.6-3zm-31.1 10.4h6.1l-3-9.5zm111.6-52.2c-3-3-6.6-4.4-10.7-4.4s-7.7 1.5-10.7 4.4c-3 3-4.5 6.5-4.5 10.7s1.5 7.8 4.5 10.7c3 3 6.5 4.4 10.7 4.4h15.2v-15.1c-.1-4.2-1.6-7.8-4.5-10.7z"/></g><path d="m67.5 32.5c-10 0-19.1 4.1-25.7 10.7-5.5 5.5-9.2 12.7-10.3 20.7-.1.9-.1 1.9-.1 2.9 0 9.6 3.9 18.3 10.2 24.7 6.3 6.3 15 10.2 24.7 10.2h.6c-8.8-.2-16.7-3.8-22.5-9.6-5.9-5.9-9.6-14.1-9.6-23.1s3.7-17.2 9.6-23.2c5.9-5.9 14.1-9.6 23.1-9.6s17.2 3.7 23.2 9.6c5.9 5.9 9.6 14.1 9.6 23.1 0 5.3-1.3 10.3-3.5 14.7 2.8-5 4.3-10.7 4.3-16.8 0-9.6-3.9-18.3-10.2-24.7-3.1-3.1-6.9-5.7-11-7.5-4-1.3-8.1-2.1-12.4-2.1zm-.7 72.8h.6c10 0 19.1-4.1 25.7-10.7 2.7-2.7 5-5.9 6.8-9.3-1.8 3.2-4 6.1-6.5 8.7-6.8 6.9-16.2 11.2-26.6 11.3z" fill="#b3b3b3"/><path d="m67.1 10.4c-16.1 0-30.7 6.6-41.3 17.1-10.5 10.6-17.1 25.2-17.1 41.2 0 16.1 6.6 30.7 17.1 41.2 7.2 7.2 16.3 12.5 26.4 15.2 4.3 1 8.8 1.5 13.4 1.5 3 0 5.9-.2 8.7-.6 12.3-2 23.3-7.9 31.7-16.4 10.6-10.6 17.2-25.2 17.2-41.3s-6.6-30.7-17.2-41.3c-7.5-7.5-17.1-13-27.8-15.6-3.6-.7-7.3-1-11.1-1zm38.7 19.7c9.9 9.9 16.1 23.6 16.1 38.7s-6.2 28.8-16.1 38.7-23.6 16.1-38.7 16.1-28.8-6.2-38.7-16.1-16.1-23.6-16.1-38.7 6.2-28.8 16.1-38.7c9.9-9.9 23.6-16.1 38.7-16.1s28.7 6.2 38.7 16.1z" fill="#b3b3b3"/><path d="m27.6 66.8c0 10.6 4.3 20.3 11.3 27.2 7 7 16.6 11.3 27.2 11.3h.6c10.4-.2 19.8-4.5 26.6-11.3 2.6-2.6 4.8-5.5 6.5-8.7.2-.3.3-.6.5-.9 2.4-5.1 3.8-10.7 3.8-16.7 0-10.8-4.4-20.6-11.5-27.7-7-7.1-16.8-11.5-27.6-11.5-2.3 0-4.6.2-6.8.6-7.4 1.6-14 5.3-19.2 10.5-7.1 6.9-11.4 16.6-11.4 27.2zm38.6-34.9c4.8 0 9.5 1 13.6 2.8s7.9 4.3 11 7.5c6.3 6.3 10.2 15 10.2 24.7 0 6.1-1.6 11.8-4.3 16.8-1.6 2.9-3.6 5.5-5.9 7.9-6.2 6.2-14.7 10.1-24 10.2h-.6c-9.6 0-18.3-3.9-24.7-10.2-6.3-6.3-10.2-15-10.2-24.7 0-1 .1-1.9.1-2.9.7-8.5 4.4-16.1 10.1-21.8 6.3-6.4 15-10.3 24.7-10.3z" fill="#1a1a1a"/><path d="m65 23.9c-12.1 0-23 4.9-30.9 12.8s-12.8 18.9-12.8 30.9 4.9 23 12.8 30.9 18.9 12.8 30.9 12.8 23-4.9 30.9-12.8 12.8-18.9 12.8-30.9-4.9-23-12.8-30.9-18.9-12.8-30.9-12.8zm27.7 71.5c-7.1 7.1-16.9 11.5-27.7 11.5s-20.6-4.4-27.7-11.5-11.5-16.9-11.5-27.7 4.4-20.6 11.5-27.7c5.6-5.6 12.8-9.5 20.9-10.9 2.2-.4 4.5-.6 6.8-.6 10.8 0 20.6 4.4 27.7 11.5s11.5 16.9 11.5 27.7c0 6-1.4 11.6-3.8 16.7-1.9 4.1-4.5 7.8-7.7 11z" fill="#508fcc"/><path d="m78.9 43.3h-.1l-.8 1.6z" fill="#b3b3b3"/><path d="m92.4 58.8c-1.7-4.9-4.7-9.2-8.6-12.4-.8-.6-1.6-1.2-2.4-1.7s-1.7-1-2.6-1.5l-.8 1.7.8-1.6c-1.5-.7-3.1-1.3-4.7-1.8-.3-.1-.6-.2-1-.2-2-.5-4.1-.7-6.2-.7-7.5 0-14.2 3-19.1 7.9s-8 11.7-8 19.1c0 7.5 3 14.2 7.9 19.1l.8-.8.1-.1c-4.3-4.4-7-10.4-7-17 0-6.7 2.7-12.8 7.1-17.2 2.5-2.5 5.5-4.4 8.8-5.6 2.9-1.3 6-1.9 9.3-2 1.9 0 3.6.2 5.4.6.3.1.5.1.8.2 1.4.4 2.8.9 4 1.5.8.4 1.5.8 2.2 1.3l2.1 1.5c3.4 2.7 6 6.4 7.4 10.7.4 1.2.8 2.5 1 3.8.3 1.3.4 2.6.4 3.8 0 1.1-.1 2.2-.2 3.3-.5 5.9-3.1 11.2-7 15.2-4.4 4.4-10.5 7.1-17.1 7.1-6.7 0-12.8-2.7-17.2-7.1l-.2-.2-.8.8c4.9 4.9 11.7 8 19.1 8 7.5 0 14.2-3 19.1-7.9s8-11.7 8-19.1c0-1.5-.2-3.1-.5-4.6 0-1.3-.4-2.7-.9-4.1z" fill="#b3b3b3"/><path d="m48.8 86.1c4.4 4.4 10.5 7.1 17.2 7.1s12.8-2.7 17.1-7.1c4-4 6.6-9.3 7-15.2.1-.7.1-1.3.1-2 0-6.7-2.7-12.8-7.1-17.1-4.4-4.4-10.5-7.1-17.2-7.1-2.9 0-5.7.5-8.3 1.5-3.3 1.2-6.3 3.2-8.8 5.6-4.4 4.4-7.1 10.5-7.1 17.2 0 6.6 2.7 12.6 7 17 0 0 .1 0 .1.1zm17.2-37.8c5.7 0 10.8 2.3 14.6 6.1 3.7 3.7 6.1 8.9 6.1 14.6s-2.3 10.8-6.1 14.6c-3.7 3.7-8.9 6.1-14.6 6.1s-10.8-2.3-14.6-6.1c-3.7-3.7-6.1-8.9-6.1-14.6s2.3-10.8 6.1-14.6l-1.2-1.2-.2-.3 1.4 1.4c3.8-3.7 8.9-6 14.6-6z" fill="#508fcc"/><path d="m65.6 0c-18.1 0-34.5 7.4-46.3 19.3-11.9 11.8-19.3 28.3-19.3 46.3 0 18.1 7.4 34.5 19.3 46.4s28.3 19.3 46.4 19.3 34.5-7.4 46.4-19.3 19.3-28.3 19.3-46.4-7.4-34.5-19.3-46.4c-12-11.8-28.4-19.2-46.5-19.2zm61.3 68.3c0 17.1-7 32.7-18.2 43.9-11.3 11.3-26.8 18.2-43.9 18.2s-32.7-7-43.9-18.2c-11.4-11.2-18.4-26.7-18.4-43.8 0-16.2 6.3-31 16.5-42.1 1.1-1.3 2.3-2.6 3.5-3.8 11-11.1 26.3-17.9 43.1-17.9s32.1 6.9 43.1 17.9c10.6 10.6 17.3 25.1 17.9 41.1.2 1.6.2 3.1.3 4.7z" fill="#508fcc"/><path d="m64.7 126.9c3.3 0 6.5-.3 9.7-.8-2.8.4-5.7.6-8.7.6-4.6 0-9.1-.5-13.4-1.5-11.4-2.6-21.7-8.4-29.7-16.4-.5-.5-.9-1-1.4-1.4.7.8 1.5 1.6 2.2 2.4 10.5 10.5 25.2 17.1 41.3 17.1z" fill="#508fcc"/><path d="m64.7 6.2c-17.1 0-32.7 7-43.9 18.2l-1.8 1.8c-10.2 11.2-16.5 25.9-16.5 42.2 0 17.1 7 32.7 18.2 43.9 11.3 11.3 26.8 18.2 43.9 18.2s32.7-7 43.9-18.2c11.3-11.3 18.2-26.8 18.2-43.9 0-1.6-.1-3.2-.2-4.8-1.2-15.2-7.8-28.9-18-39.2-11.2-11.2-26.7-18.2-43.8-18.2zm-43.6 101.1c-9.3-10.4-14.9-24-14.9-39 0-16.1 6.6-30.7 17.2-41.3 10.5-10.6 25.2-17.2 41.3-17.2 4.7 0 9.2.6 13.5 1.6 10.7 2.6 20.3 8.1 27.8 15.6 10.6 10.6 17.2 25.2 17.2 41.3s-6.6 30.7-17.2 41.3c-8.4 8.4-19.4 14.3-31.7 16.4-3.1.5-6.4.8-9.6.8-16.1 0-30.7-6.6-41.3-17.2-.8-.7-1.6-1.5-2.3-2.3zm398.1-26.7h8l.1-44.2h-8.1zm-88.1-45.8-12.8 29.5-13.7-29.5h-9.9l21.4 45.3h4.1l20.5-45.3zm26.9-.5c-6.5 0-12 2.3-16.7 6.9-4.6 4.6-6.9 10.2-6.9 16.8s2.3 12.1 6.9 16.8c4.6 4.6 10.2 6.9 16.7 6.9h23.6c0-7.8.1-15.8.1-23.7h.1c0-6.6-2.3-12.1-6.9-16.8-4.8-4.6-10.3-6.9-16.9-6.9zm15.2 38.8h-15.2c-4.1 0-7.7-1.5-10.7-4.4-3-3-4.5-6.5-4.5-10.7s1.5-7.7 4.5-10.7 6.5-4.4 10.7-4.4 7.8 1.5 10.7 4.4c3 3 4.5 6.5 4.5 10.7zm-215.9-36.7h-8l-.1 44.2h8.1zm39.5 44.2h8.1v-23.7c0-6.1-2.2-11.3-6.5-15.7-4.3-4.3-9.6-6.5-15.7-6.5s-11.4 2.2-15.8 6.5-6.6 9.6-6.6 15.7l-.1 23.7h8.1l.1-23.7c0-3.9 1.4-7.2 4.2-10s6.1-4.1 10.1-4.1c3.9 0 7.3 1.4 10.1 4.1 2.8 2.8 4.2 6.1 4.2 10zm80.8 1.1c6.5 0 12-2.3 16.7-6.9 9.2-9.2 9.2-24.3 0-33.5-4.6-4.6-10.2-6.9-16.7-6.9-6.6 0-12.1 2.3-16.8 6.9-4.6 4.6-6.9 10.2-6.9 16.8s2.3 12.1 6.9 16.8c4.7 4.5 10.2 6.8 16.8 6.8zm-10.7-34.4c3-3 6.6-4.4 10.7-4.4s7.7 1.5 10.7 4.4c5.9 5.9 5.9 15.5 0 21.4-3 3-6.5 4.4-10.7 4.4s-7.8-1.5-10.7-4.4c-3-3-4.5-6.5-4.5-10.7s1.5-7.7 4.5-10.7zm-27-.4c2.8 2.8 4.2 6.1 4.2 10l-.1 23.7h8.1v-23.7c0-6.1-2.2-11.3-6.5-15.7-4.3-4.3-9.6-6.5-15.7-6.5s-11.4 2.2-15.8 6.5-6.6 9.6-6.6 15.7l-.1 23.7h8.1l.1-23.7c0-3.9 1.4-7.2 4.2-10s6.1-4.1 10.1-4.1c3.8-.1 7.2 1.3 10 4.1zm268.7-5.7c-4.6-4.6-10.2-6.9-16.8-6.9-6.5 0-12 2.3-16.7 6.9-4.6 4.6-6.9 10.2-6.9 16.8s2.3 12.1 6.9 16.8c4.6 4.6 10.2 6.9 16.7 6.9h14.8v-8.5h-14.9c-4.1 0-7.7-1.5-10.7-4.4-3-3-4.5-6.5-4.5-10.7s1.5-7.7 4.5-10.7 6.5-4.4 10.7-4.4 7.8 1.5 10.7 4.4c2.3 2.3 3.7 4.9 4.2 7.9h-14.9v8.6h23.6c.2-8.6.1-15.9-6.7-22.7zm-44.7-4.7-12.4 28.4-13.1-28.4h-9.5l20.6 43.6h3.9l19.8-43.6zm-70.6-9.3h-8.4v30.4c0 6.3 2.3 11.7 6.8 16.2 4.6 4.5 10 6.8 16.4 6.8l8.7-.1v-8.4h-10.3c-2.6-.7-4.8-1.7-6.6-2.9-4.3-3-6.5-6.9-6.5-11.8l-.1-13h23.5v-8.1h-23.5z" fill="#1a1a1a"/><path d="m154.3 98.1h11.9v-4.2h-11.9v-5.2h12.9v-4.3h-17.8v24.3h18.4v-4.4h-13.5zm26.5-3.1-5.1-10.6h-6l8.5 15.2v9.1h5v-9.1l8.2-15.2h-5.8zm18.6 3.1h11.8v-4.2h-11.8v-5.2h12.8v-4.3h-17.8v24.3h18.4v-4.4h-13.4zm36.8-9.8c1.8 0 3.2.5 4.1 1.6.5.6.9 1.5 1.3 2.6h5.1c-.1-1.5-.6-3-1.7-4.5-1.9-2.7-4.9-4-9-4-3.1 0-5.6 1-7.5 3-2.3 2.3-3.4 5.6-3.4 9.8 0 3.9 1 7 3 9.3 2 2.2 4.7 3.4 8.2 3.4 2.8 0 5.1-.8 6.9-2.5s2.9-3.8 3.4-6.5h-5c-.3 1.3-.8 2.2-1.3 2.8-.9 1.2-2.3 1.7-4.1 1.7-1.7 0-3.2-.7-4.3-2-1.1-1.4-1.7-3.4-1.7-6.1s.5-4.8 1.6-6.3c1.1-1.6 2.6-2.3 4.4-2.3zm21.3-3.9-8.7 24.3h5.3l1.7-5h9l1.6 5h5.5l-8.6-24.3zm-.3 15.1 3.1-9.6 3 9.6zm37.2 7.2c-.1-.4-.1-1.1-.1-2.3v-1.6c0-1.7-.2-3-.7-3.8s-1.2-1.5-2.4-1.9c1.3-.5 2.3-1.2 2.9-2.4.6-1.1.9-2.2.9-3.4 0-1-.2-1.8-.5-2.6-.3-.7-.7-1.4-1.3-2-.6-.7-1.4-1.3-2.3-1.7s-2.2-.6-3.9-.6h-12v24.3h5v-9.5h5.3c1.5 0 2.5.3 3.1.8.5.5.8 1.6.8 3.1v2.3c0 .7.1 1.4.2 2.1.1.3.2.8.3 1.3h5.6v-.6c-.5-.4-.8-.9-.9-1.5zm-6.1-11.9c-.6.3-1.4.4-2.6.4h-5.7v-6.5h5.9c1.1 0 1.9.1 2.5.4 1 .5 1.5 1.5 1.5 3-.1 1.3-.6 2.2-1.6 2.7zm16.1 3.3h11.8v-4.2h-11.8v-5.2h12.9v-4.3h-17.9v24.3h18.4v-4.4h-13.4z" fill="#508fcc"/></svg>