<svg class="w-full md:w-1/2 mx-auto" xmlns="http://www.w3.org/2000/svg" fill="none" viewBox="0 0 180 33">
	<title>EyeSpace</title>
	<path fill="#fff" d="M60.7036 32.0003L69.449 8.72128H63.9126L60.578 18.8509L57.0236 8.72128H51.4546L57.9354 25.2993L55.1669 32.0003H60.7036Z" class="text-headline"></path>
	<path fill="#fff" d="M51.5 26.2V21H44.3V17H51.3V11.7H44.3V8.1H51.5V2.9H38.3V26.2H51.5ZM85.6 19.3H72.6C72.7 19.9 72.9 20.4 73.3 20.9 73.7 21.4 74.2 21.7 74.7 21.9 75.3 22.2 75.9 22.3 76.6 22.3 77.5 22.3 78.1 22.2 78.6 21.9 79.1 21.6 79.5 21.2 79.8 20.7H85.2C84.3 22.7 83.1 24.2 81.6 25.2 80.9 25.7 80.1 26.1 79.2 26.4 78.4 26.6 77.5 26.7 76.6 26.7 75.4 26.7 74.2 26.5 73.1 26 72 25.6 71 24.9 70.1 24.1 69.3 23.2 68.6 22.2 68.1 21.1 67.6 20 67.4 18.8 67.4 17.5 67.4 16.3 67.6 15.1 68.1 14 68.5 12.9 69.1 11.9 70 11 70.8 10.1 71.8 9.4 72.9 8.9 74 8.4 75.2 8.1 76.5 8.1 77.9 8.1 79.1 8.4 80.2 8.9 81.4 9.3 82.3 10 83.1 10.9 84.2 12.1 85 13.4 85.3 14.8 85.7 16.2 85.8 17.7 85.6 19.3ZM72.7 15.3H80.5C80.4 15 80.3 14.7 80 14.2 79.7 13.8 79.3 13.4 78.8 13.1 78.2 12.7 77.5 12.5 76.6 12.5 75.7 12.5 75 12.7 74.4 13.1 73.8 13.4 73.4 13.8 73.1 14.2 72.9 14.7 72.7 15 72.7 15.3ZM101 19.2C101 20.7 100.7 22 100 23.1 99.4 24.2 98.5 25.1 97.3 25.7 96.2 26.3 94.9 26.6 93.5 26.7 92.1 26.6 90.8 26.3 89.7 25.7 88.6 25.1 87.7 24.3 87 23.2 86.3 22.1 86 20.9 85.9 19.5H90.4C90.5 20.4 90.8 21.1 91.3 21.7 91.8 22.3 92.6 22.6 93.5 22.6 94.1 22.6 94.6 22.5 95.1 22.3 95.6 22 95.9 21.7 96.2 21.2 96.5 20.8 96.7 20.3 96.7 19.7 96.7 18.8 96.4 18.2 96 17.7 95.6 17.2 95 16.8 94.3 16.6 93.6 16.3 93 16 92.3 15.8 91.5 15.5 90.8 15.2 90.2 14.9 89 14.3 88.1 13.5 87.6 12.5 87 11.6 86.7 10.4 86.7 9.1 86.7 7.8 87 6.6 87.7 5.6 88.3 4.6 89.1 3.9 90.1 3.3 91.1 2.7 92.3 2.4 93.6 2.4 94.8 2.4 96 2.7 97 3.3 98 3.9 98.8 4.7 99.4 5.7 100 6.7 100.4 7.8 100.4 9.1H96C96 8.3 95.7 7.6 95.3 7.2 94.9 6.7 94.2 6.5 93.4 6.5 92.7 6.5 92.2 6.7 91.7 7.1 91.3 7.5 91.1 8.1 91 8.8 91.1 9.6 91.3 10.1 91.6 10.5 92.1 10.9 92.5 11.2 93.1 11.5 93.7 11.7 94.3 11.9 94.9 12.1 96.1 12.4 97.1 12.9 98.1 13.5 99 14.1 99.7 14.9 100.2 15.8 100.7 16.7 101 17.9 101 19.2ZM138.9 26.2H135.6V23.5H135.6C134.9 24.5 134.1 25.3 133 25.8 132 26.4 130.9 26.6 129.6 26.6 127.9 26.6 126.3 26.2 124.9 25.4 123.5 24.7 122.4 23.6 121.6 22.2 120.8 20.9 120.4 19.3 120.4 17.5 120.4 15.8 120.8 14.2 121.6 12.8 122.4 11.4 123.5 10.3 124.9 9.5 126.3 8.7 127.9 8.3 129.6 8.3 130.8 8.3 131.9 8.5 133 9 134 9.5 134.9 10.2 135.6 11.2H135.6V8.8H138.9V26.2ZM135.7 17.5C135.7 16.3 135.4 15.3 134.9 14.3 134.4 13.4 133.7 12.7 132.8 12.1 131.9 11.6 130.8 11.3 129.6 11.3 128.5 11.3 127.5 11.6 126.6 12.1 125.7 12.7 125 13.4 124.5 14.4 123.9 15.3 123.7 16.3 123.7 17.5 123.7 18.6 124 19.6 124.5 20.5 125 21.5 125.7 22.2 126.6 22.8 127.5 23.3 128.5 23.6 129.6 23.6 130.8 23.6 131.8 23.3 132.7 22.8 133.6 22.2 134.3 21.5 134.9 20.6 135.4 19.7 135.7 18.6 135.7 17.5ZM119.7 17.4C119.7 18.6 119.5 19.8 119.1 20.9 118.7 22 118.1 23 117.3 23.9 116.5 24.8 115.6 25.5 114.5 26 113.5 26.5 112.3 26.7 111 26.7 110.2 26.7 109.5 26.7 108.9 26.5 108.3 26.4 107.8 26.1 107.2 25.8 106.7 25.5 106.2 25 105.6 24.5V32H101.4V8.7H105.3V10.8H105.3C106.1 9.9 106.9 9.2 107.9 8.8 108.8 8.3 109.9 8.1 111 8.1 112.3 8.1 113.5 8.4 114.5 8.9 115.6 9.3 116.5 10 117.3 10.9 118.1 11.7 118.7 12.7 119.1 13.8 119.5 14.9 119.7 16.1 119.7 17.4ZM115.6 17.4C115.6 16.5 115.3 15.6 114.9 14.8 114.5 13.9 113.9 13.3 113.2 12.8 112.4 12.2 111.5 12 110.5 12 109.5 12 108.6 12.2 107.9 12.7 107.1 13.2 106.5 13.9 106 14.7 105.6 15.5 105.4 16.4 105.4 17.4 105.4 18.5 105.6 19.5 106.1 20.4 106.7 21.3 107.4 21.9 108.4 22.4 109.1 22.7 109.7 22.9 110.5 22.9 111.5 22.9 112.3 22.6 113.1 22.1 113.9 21.6 114.5 20.9 114.9 20.1 115.3 19.3 115.5 18.4 115.6 17.4ZM175.5 17.7C175.4 18 175.4 18.2 175.4 18.4H159.8C159.8 19.5 160.2 20.6 160.8 21.5 161.4 22.4 162.2 23.2 163.2 23.7 164.2 24.3 165.3 24.6 166.4 24.6 167.3 24.6 168.2 24.4 169 24.1 169.8 23.8 170.5 23.3 171.2 22.7 171.8 22.1 172.3 21.4 172.6 20.5H174.9C174.5 21.8 173.9 22.8 173 23.7 172.2 24.6 171.2 25.3 170.1 25.8 168.9 26.3 167.7 26.6 166.5 26.6 164.8 26.6 163.3 26.2 161.9 25.3 160.6 24.5 159.5 23.5 158.7 22.1 157.9 20.8 157.5 19.3 157.5 17.6 157.5 15.9 157.9 14.4 158.7 13.1 159.5 11.7 160.6 10.6 161.9 9.8 163.3 9 164.8 8.5 166.4 8.5 167.7 8.5 168.9 8.8 170 9.3 171.1 9.8 172 10.4 172.8 11.3 173.6 12.1 174.3 13.1 174.7 14.2 175.2 15.3 175.5 16.5 175.5 17.7ZM173.2 16.4C173 15.3 172.6 14.3 172 13.4 171.3 12.5 170.6 11.8 169.6 11.3 168.7 10.8 167.6 10.5 166.5 10.5 165.3 10.5 164.3 10.8 163.3 11.3 162.4 11.8 161.6 12.5 161 13.4 160.4 14.3 159.9 15.3 159.8 16.4H173.2ZM157.1 20.4C156.6 21.7 156 22.8 155.1 23.7 154.3 24.6 153.3 25.3 152.2 25.8 151.1 26.4 149.8 26.6 148.5 26.6 146.7 26.6 145.2 26.2 143.9 25.4 142.5 24.6 141.5 23.5 140.7 22.1 140 20.7 139.6 19.1 139.5 17.4 139.6 15.7 140 14.2 140.7 12.8 141.5 11.4 142.5 10.3 143.9 9.5 145.2 8.7 146.8 8.3 148.5 8.3 149.8 8.3 151 8.5 152.2 9.1 153.4 9.6 154.4 10.3 155.2 11.3 156.1 12.2 156.7 13.3 157.1 14.5H153.4C153 13.5 152.3 12.7 151.5 12.1 150.7 11.6 149.7 11.3 148.5 11.3 147.3 11.3 146.3 11.6 145.5 12.1 144.6 12.7 144 13.4 143.5 14.3 143 15.2 142.8 16.3 142.8 17.4 142.8 18.6 143 19.6 143.5 20.5 144 21.4 144.6 22.2 145.5 22.8 146.3 23.3 147.3 23.6 148.5 23.6 149.6 23.6 150.6 23.3 151.4 22.8 152.3 22.2 152.9 21.4 153.4 20.4H157.1ZM176.5 7.4V8H175.4V11.1H174.6V8H173.5V7.4H176.5ZM178.9 7.4H180V11.1H179.3V8.6C179.3 8.5 179.3 8.4 179.3 8.3 179.3 8.1 179.3 8 179.3 8L178.6 11.1H177.8L177.1 8C177.1 8 177.1 8.1 177.1 8.3 177.1 8.4 177.1 8.5 177.1 8.6V11.1H176.4V7.4H177.6L178.2 10.3 178.9 7.4Z" class="text-headline"></path>
	<path fill="#03f601" fill-rule="evenodd" d="M16.0455 29.4434C23.4449 29.4434 29.4434 23.4449 29.4434 16.0454C29.4434 8.64593 23.4449 2.64746 16.0455 2.64746C8.64592 2.64746 2.64746 8.64593 2.64746 16.0454C2.64746 23.4449 8.64592 29.4434 16.0455 29.4434ZM16.0455 28.0795C22.6917 28.0795 28.0795 22.6916 28.0795 16.0454C28.0795 9.39912 22.6917 4.0113 16.0455 4.0113C9.39921 4.0113 4.01134 9.39912 4.01134 16.0454C4.01134 22.6916 9.39921 28.0795 16.0455 28.0795Z" clip-rule="evenodd" class="text-eyespace"></path>
	<path fill="#03f601" fill-rule="evenodd" d="M16.0456 23.6668C20.2549 23.6668 23.6672 20.2545 23.6672 16.0452C23.6672 11.8359 20.2549 8.42361 16.0456 8.42361C11.8363 8.42361 8.42401 11.8359 8.42401 16.0452C8.42401 20.2545 11.8363 23.6668 16.0456 23.6668ZM16.0456 21.6612C19.1471 21.6612 21.6615 19.1468 21.6615 16.0452C21.6615 12.9437 19.1471 10.4294 16.0456 10.4294C12.944 10.4294 10.4297 12.9437 10.4297 16.0452C10.4297 19.1468 12.944 21.6612 16.0456 21.6612Z" clip-rule="evenodd" class="text-eyespace"></path>
</svg>