<svg width="515" height="131" viewBox="0 0 515 131" fill="none" xmlns="http://www.w3.org/2000/svg">
<path d="M154.3 98.1H166.2V93.9H154.3V88.7H167.2V84.4H149.4V108.7H167.8V104.3H154.3V98.1ZM180.8 95L175.7 84.4H169.7L178.2 99.6V108.7H183.2V99.6L191.4 84.4H185.6L180.8 95ZM199.4 98.1H211.2V93.9H199.4V88.7H212.2V84.4H194.4V108.7H212.8V104.3H199.4V98.1ZM236.2 88.3C238 88.3 239.4 88.8 240.3 89.9C240.8 90.5 241.2 91.4 241.6 92.5H246.7C246.6 91 246.1 89.5 245 88C243.1 85.3 240.1 84 236 84C232.9 84 230.4 85 228.5 87C226.2 89.3 225.1 92.6 225.1 96.8C225.1 100.7 226.1 103.8 228.1 106.1C230.1 108.3 232.8 109.5 236.3 109.5C239.1 109.5 241.4 108.7 243.2 107C245 105.3 246.1 103.2 246.6 100.5H241.6C241.3 101.8 240.8 102.7 240.3 103.3C239.4 104.5 238 105 236.2 105C234.5 105 233 104.3 231.9 103C230.8 101.6 230.2 99.6 230.2 96.9C230.2 94.2 230.7 92.1 231.8 90.6C232.9 89 234.4 88.3 236.2 88.3ZM257.5 84.4L248.8 108.7H254.1L255.8 103.7H264.8L266.4 108.7H271.9L263.3 84.4H257.5ZM257.2 99.5L260.3 89.9L263.3 99.5H257.2ZM294.4 106.7C294.3 106.3 294.3 105.6 294.3 104.4V102.8C294.3 101.1 294.1 99.8 293.6 99C293.1 98.2 292.4 97.5 291.2 97.1C292.5 96.6 293.5 95.9 294.1 94.7C294.7 93.6 295 92.5 295 91.3C295 90.3 294.8 89.5 294.5 88.7C294.2 88 293.8 87.3 293.2 86.7C292.6 86 291.8 85.4 290.9 85C290 84.6 288.7 84.4 287 84.4H275V108.7H280V99.2H285.3C286.8 99.2 287.8 99.5 288.4 100C288.9 100.5 289.2 101.6 289.2 103.1V105.4C289.2 106.1 289.3 106.8 289.4 107.5C289.5 107.8 289.6 108.3 289.7 108.8H295.3V108.2C294.8 107.8 294.5 107.3 294.4 106.7ZM288.3 94.8C287.7 95.1 286.9 95.2 285.7 95.2H280V88.7H285.9C287 88.7 287.8 88.8 288.4 89.1C289.4 89.6 289.9 90.6 289.9 92.1C289.8 93.4 289.3 94.3 288.3 94.8ZM304.4 98.1H316.2V93.9H304.4V88.7H317.3V84.4H299.4V108.7H317.8V104.3H304.4V98.1Z" fill="#508FCC"/>
<path d="M419.2 80.6H427.2L427.3 36.4H419.2V80.6ZM331.1 34.7999L318.3 64.3L304.6 34.7999H294.7L316.1 80.1H320.2L340.7 34.7999H331.1ZM358 34.2999C351.5 34.2999 346 36.6 341.3 41.2C336.7 45.8 334.4 51.4 334.4 58C334.4 64.6 336.7 70.1 341.3 74.8C345.9 79.4 351.5 81.7 358 81.7H381.6C381.6 73.9 381.7 65.9 381.7 58H381.8C381.8 51.4 379.5 45.9 374.9 41.2C370.1 36.6 364.6 34.2999 358 34.2999ZM373.2 73.1H358C353.9 73.1 350.3 71.5999 347.3 68.6999C344.3 65.6999 342.8 62.2 342.8 58C342.8 53.8 344.3 50.2999 347.3 47.2999C350.3 44.2999 353.8 42.9 358 42.9C362.2 42.9 365.8 44.3999 368.7 47.2999C371.7 50.2999 373.2 53.8 373.2 58V73.1ZM157.3 36.4H149.3L149.2 80.6H157.3V36.4ZM196.8 80.6H204.9V56.9C204.9 50.8 202.7 45.6 198.4 41.2C194.1 36.9 188.8 34.7 182.7 34.7C176.6 34.7 171.3 36.9 166.9 41.2C162.5 45.5 160.3 50.8 160.3 56.9L160.2 80.6H168.3L168.4 56.9C168.4 53 169.8 49.7 172.6 46.9C175.4 44.1 178.7 42.7999 182.7 42.7999C186.6 42.7999 190 44.2 192.8 46.9C195.6 49.7 197 53 197 56.9L196.8 80.6ZM277.6 81.7C284.1 81.7 289.6 79.4 294.3 74.8C303.5 65.6 303.5 50.4999 294.3 41.2999C289.7 36.6999 284.1 34.4 277.6 34.4C271 34.4 265.5 36.6999 260.8 41.2999C256.2 45.8999 253.9 51.4999 253.9 58.0999C253.9 64.6999 256.2 70.2 260.8 74.9C265.5 79.4 271 81.7 277.6 81.7ZM266.9 47.2999C269.9 44.2999 273.5 42.9 277.6 42.9C281.7 42.9 285.3 44.3999 288.3 47.2999C294.2 53.1999 294.2 62.7999 288.3 68.6999C285.3 71.6999 281.8 73.1 277.6 73.1C273.4 73.1 269.8 71.5999 266.9 68.6999C263.9 65.6999 262.4 62.2 262.4 58C262.4 53.8 263.9 50.2999 266.9 47.2999ZM239.9 46.9C242.7 49.7 244.1 53 244.1 56.9L244 80.6H252.1V56.9C252.1 50.8 249.9 45.6 245.6 41.2C241.3 36.9 236 34.7 229.9 34.7C223.8 34.7 218.5 36.9 214.1 41.2C209.7 45.5 207.5 50.8 207.5 56.9L207.4 80.6H215.5L215.6 56.9C215.6 53 217 49.7 219.8 46.9C222.6 44.1 225.9 42.7999 229.9 42.7999C233.7 42.6999 237.1 44.1 239.9 46.9ZM508.6 41.2C504 36.6 498.4 34.2999 491.8 34.2999C485.3 34.2999 479.8 36.6 475.1 41.2C470.5 45.8 468.2 51.4 468.2 58C468.2 64.6 470.5 70.1 475.1 74.8C479.7 79.4 485.3 81.7 491.8 81.7H506.6V73.2H491.7C487.6 73.2 484 71.7 481 68.8C478 65.8 476.5 62.2999 476.5 58.0999C476.5 53.8999 478 50.4 481 47.4C484 44.4 487.5 43 491.7 43C495.9 43 499.5 44.5 502.4 47.4C504.7 49.7 506.1 52.2999 506.6 55.2999H491.7V63.9H515.3C515.5 55.3 515.4 48 508.6 41.2ZM463.9 36.5L451.5 64.9L438.4 36.5H428.9L449.5 80.1H453.4L473.2 36.5H463.9ZM393.3 27.2H384.9V57.5999C384.9 63.8999 387.2 69.3 391.7 73.8C396.3 78.3 401.7 80.6 408.1 80.6L416.8 80.5V72.1H406.5C403.9 71.4 401.7 70.3999 399.9 69.1999C395.6 66.1999 393.4 62.3 393.4 57.4L393.3 44.4H416.8V36.2999H393.3V27.2Z" fill="currentColor"/>
<path d="M67.5 32.5C57.5 32.5 48.4 36.6 41.8 43.2C36.3 48.7 32.6 55.9 31.5 63.9C31.4 64.8 31.4 65.8 31.4 66.8C31.4 76.4 35.3 85.1 41.6 91.5C47.9 97.8 56.6 101.7 66.3 101.7H66.9C58.1 101.5 50.2 97.9 44.4 92.1C38.5 86.2 34.8 78 34.8 69C34.8 60 38.5 51.8 44.4 45.8C50.3 39.9 58.5 36.2 67.5 36.2C76.5 36.2 84.7 39.9 90.7 45.8C96.6 51.7 100.3 59.9 100.3 68.9C100.3 74.2 99 79.2 96.8 83.6C99.6 78.6 101.1 72.9 101.1 66.8C101.1 57.2 97.2 48.5 90.9 42.1C87.8 39 84 36.4 79.9 34.6C75.9 33.3 71.8 32.5 67.5 32.5ZM66.8 105.3H67.4C77.4 105.3 86.5 101.2 93.1 94.6C95.8 91.9 98.1 88.7 99.9 85.3C98.1 88.5 95.9 91.4 93.4 94C86.6 100.9 77.2 105.2 66.8 105.3Z" fill="#B3B3B3"/>
<path d="M67.1 10.4C51 10.4 36.4 17 25.8 27.5C15.3 38.1 8.70001 52.7 8.70001 68.7C8.70001 84.8 15.3 99.4 25.8 109.9C33 117.1 42.1 122.4 52.2 125.1C56.5 126.1 61 126.6 65.6 126.6C68.6 126.6 71.5 126.4 74.3 126C86.6 124 97.6 118.1 106 109.6C116.6 99 123.2 84.4 123.2 68.3C123.2 52.2 116.6 37.6 106 27C98.5 19.5 88.9 14 78.2 11.4C74.6 10.7 70.9 10.4 67.1 10.4ZM105.8 30.1C115.7 40 121.9 53.7 121.9 68.8C121.9 83.9 115.7 97.6 105.8 107.5C95.9 117.4 82.2 123.6 67.1 123.6C52 123.6 38.3 117.4 28.4 107.5C18.5 97.6 12.3 83.9 12.3 68.8C12.3 53.7 18.5 40 28.4 30.1C38.3 20.2 52 14 67.1 14C82.2 14 95.8 20.2 105.8 30.1Z" fill="#B3B3B3"/>
<path d="M27.6 66.8C27.6 77.4 31.9 87.1 38.9 94C45.9 101 55.5 105.3 66.1 105.3H66.7C77.1 105.1 86.5 100.8 93.3 94C95.9 91.4 98.1 88.5 99.8 85.3C100 85 100.1 84.7 100.3 84.4C102.7 79.3 104.1 73.7 104.1 67.7C104.1 56.9 99.7 47.1 92.6 40C85.6 32.9 75.8 28.5 65 28.5C62.7 28.5 60.4 28.7 58.2 29.1C50.8 30.7 44.2 34.4 39 39.6C31.9 46.5 27.6 56.2 27.6 66.8ZM66.2 31.9C71 31.9 75.7 32.9 79.8 34.7C83.9 36.5 87.7 39 90.8 42.2C97.1 48.5 101 57.2 101 66.9C101 73 99.4 78.7 96.7 83.7C95.1 86.6 93.1 89.2 90.8 91.6C84.6 97.8 76.1 101.7 66.8 101.8H66.2C56.6 101.8 47.9 97.9 41.5 91.6C35.2 85.3 31.3 76.6 31.3 66.9C31.3 65.9 31.4 65 31.4 64C32.1 55.5 35.8 47.9 41.5 42.2C47.8 35.8 56.5 31.9 66.2 31.9Z" fill="#1A1A1A"/>
<path d="M65 23.9C52.9 23.9 42 28.8 34.1 36.7C26.2 44.6 21.3 55.6 21.3 67.6C21.3 79.6 26.2 90.6 34.1 98.5C42 106.4 53 111.3 65 111.3C77 111.3 88 106.4 95.9 98.5C103.8 90.6 108.7 79.6 108.7 67.6C108.7 55.6 103.8 44.6 95.9 36.7C88 28.8 77 23.9 65 23.9ZM92.7 95.4C85.6 102.5 75.8 106.9 65 106.9C54.2 106.9 44.4 102.5 37.3 95.4C30.2 88.3 25.8 78.5 25.8 67.7C25.8 56.9 30.2 47.1 37.3 40C42.9 34.4 50.1 30.5 58.2 29.1C60.4 28.7 62.7 28.5 65 28.5C75.8 28.5 85.6 32.9 92.7 40C99.8 47.1 104.2 56.9 104.2 67.7C104.2 73.7 102.8 79.3 100.4 84.4C98.5 88.5 95.9 92.2 92.7 95.4Z" fill="#508FCC"/>
<path d="M78.9 43.3H78.8L78 44.9001L78.9 43.3Z" fill="#B3B3B3"/>
<path d="M92.4 58.8C90.7 53.9 87.7 49.6 83.8 46.4C83 45.8 82.2 45.2 81.4 44.7C80.6 44.2 79.7 43.7 78.8 43.2L78 44.9L78.8 43.3C77.3 42.6 75.7 42 74.1 41.5C73.8 41.4 73.5 41.3 73.1 41.3C71.1 40.8 69 40.6 66.9 40.6C59.4 40.6 52.7 43.6 47.8 48.5C42.9 53.4 39.8 60.2 39.8 67.6C39.8 75.1 42.8 81.8 47.7 86.7L48.5 85.9L48.6 85.8C44.3 81.4 41.6 75.4 41.6 68.8C41.6 62.1 44.3 56 48.7 51.6C51.2 49.1 54.2 47.2 57.5 46C60.4 44.7 63.5 44.1 66.8 44C68.7 44 70.4 44.2 72.2 44.6C72.5 44.7 72.7 44.7 73 44.8C74.4 45.2 75.8 45.7 77 46.3C77.8 46.7 78.5 47.1 79.2 47.6L81.3 49.1C84.7 51.8 87.3 55.5 88.7 59.8C89.1 61 89.5 62.3 89.7 63.6C90 64.9 90.1 66.2 90.1 67.4C90.1 68.5 90 69.6 89.9 70.7C89.4 76.6 86.8 81.9 82.9 85.9C78.5 90.3 72.4 93 65.8 93C59.1 93 53 90.3 48.6 85.9L48.4 85.7L47.6 86.5C52.5 91.4 59.3 94.5 66.7 94.5C74.2 94.5 80.9 91.5 85.8 86.6C90.7 81.7 93.8 74.9 93.8 67.5C93.8 66 93.6 64.4 93.3 62.9C93.3 61.6 92.9 60.2 92.4 58.8Z" fill="#B3B3B3"/>
<path d="M48.8 86.0999C53.2 90.4999 59.3 93.1999 66 93.1999C72.7 93.1999 78.8 90.4999 83.1 86.0999C87.1 82.0999 89.7 76.8 90.1 70.9C90.2 70.2 90.2 69.6 90.2 68.9C90.2 62.2 87.5 56.0999 83.1 51.7999C78.7 47.3999 72.6 44.7 65.9 44.7C63 44.7 60.2 45.2 57.6 46.2C54.3 47.4 51.3 49.3999 48.8 51.7999C44.4 56.1999 41.7 62.3 41.7 69C41.7 75.6 44.4 81.6 48.7 86C48.7 86 48.8 85.9999 48.8 86.0999ZM66 48.2999C71.7 48.2999 76.8 50.6 80.6 54.4C84.3 58.1 86.7 63.3 86.7 69C86.7 74.7 84.4 79.7999 80.6 83.5999C76.9 87.2999 71.7 89.6999 66 89.6999C60.3 89.6999 55.2 87.3999 51.4 83.5999C47.7 79.8999 45.3 74.7 45.3 69C45.3 63.3 47.6 58.2 51.4 54.4L50.2 53.2L50 52.9L51.4 54.2999C55.2 50.5999 60.3 48.2999 66 48.2999Z" fill="#508FCC"/>
<path d="M64.7 126.9C68 126.9 71.2 126.6 74.4 126.1C71.6 126.5 68.7 126.7 65.7 126.7C61.1 126.7 56.6 126.2 52.3 125.2C40.9 122.6 30.6 116.8 22.6 108.8C22.1 108.3 21.7 107.8 21.2 107.4C21.9 108.2 22.7 109 23.4 109.8C33.9 120.3 48.6 126.9 64.7 126.9Z" fill="#508FCC"/>
<path d="M65.6 0C47.5 0 31.1 7.4 19.3 19.3C7.4 31.1 0 47.6 0 65.6C0 83.7 7.4 100.1 19.3 112C31.2 123.9 47.6 131.3 65.7 131.3C83.8 131.3 100.2 123.9 112.1 112C124 100.1 131.4 83.7 131.4 65.6C131.4 47.5 124 31.1 112.1 19.2C100.1 7.4 83.7 0 65.6 0ZM126.9 68.3C126.9 85.4 119.9 101 108.7 112.2C97.4 123.5 81.9 130.4 64.8 130.4C47.7 130.4 32.1 123.4 20.9 112.2C9.5 101 2.5 85.5 2.5 68.4C2.5 52.2 8.8 37.4 19 26.3C20.1 25 21.3 23.7 22.5 22.5C33.5 11.4 48.8 4.6 65.6 4.6C82.4 4.6 97.7 11.5 108.7 22.5C119.3 33.1 126 47.6 126.6 63.6C126.8 65.2 126.8 66.7 126.9 68.3Z" fill="#508FCC"/>
<path d="M64.7 6.19995C47.6 6.19995 32 13.2 20.8 24.4L19 26.2C8.8 37.4 2.5 52.1 2.5 68.4C2.5 85.5 9.5 101.1 20.7 112.3C32 123.6 47.5 130.5 64.6 130.5C81.7 130.5 97.3 123.5 108.5 112.3C119.8 101 126.7 85.5 126.7 68.4C126.7 66.8 126.6 65.1999 126.5 63.5999C125.3 48.3999 118.7 34.7 108.5 24.4C97.3 13.2 81.8 6.19995 64.7 6.19995ZM21.1 107.3C11.8 96.9 6.2 83.3 6.2 68.3C6.2 52.2 12.8 37.6 23.4 27C33.9 16.4 48.6 9.79995 64.7 9.79995C69.4 9.79995 73.9 10.4 78.2 11.4C88.9 14 98.5 19.5 106 27C116.6 37.6 123.2 52.2 123.2 68.3C123.2 84.4 116.6 99 106 109.6C97.6 118 86.6 123.9 74.3 126C71.2 126.5 67.9 126.8 64.7 126.8C48.6 126.8 34 120.2 23.4 109.6C22.6 108.9 21.8 108.1 21.1 107.3Z" fill="#1A1A1A"/>
</svg>
